<?xml version="1.0" encoding="UTF-8" standalone="no"?>
<svg
   viewBox="0 0 509 447.97101"
   version="1.1"
   id="svg21690"
   sodipodi:docname="bluesky-brands-solid.svg"
   width="509"
   height="447.97101"
   inkscape:version="1.2.1 (9c6d41e410, 2022-07-14)"
   xmlns:inkscape="http://www.inkscape.org/namespaces/inkscape"
   xmlns:sodipodi="http://sodipodi.sourceforge.net/DTD/sodipodi-0.dtd"
   xmlns="http://www.w3.org/2000/svg"
   xmlns:svg="http://www.w3.org/2000/svg">
  <defs
     id="defs21694" />
  <sodipodi:namedview
     id="namedview21692"
     pagecolor="#ffffff"
     bordercolor="#000000"
     borderopacity="0.25"
     inkscape:showpageshadow="2"
     inkscape:pageopacity="0.0"
     inkscape:pagecheckerboard="0"
     inkscape:deskcolor="#d1d1d1"
     showgrid="false"
     inkscape:zoom="1.6679688"
     inkscape:cx="242.8103"
     inkscape:cy="208.03747"
     inkscape:window-width="2560"
     inkscape:window-height="1009"
     inkscape:window-x="1072"
     inkscape:window-y="353"
     inkscape:window-maximized="1"
     inkscape:current-layer="svg21690" />
  <!--!Font Awesome Free 6.7.2 by @fontawesome - https://fontawesome.com License - https://fontawesome.com/license/free Copyright 2025 Fonticons, Inc.-->
  <path
     d="m 110.3,30.230773 c 58.4,43.7 121.2,132.499997 144.2,180.199997 23,-47.6 85.8,-136.399997 144.2,-180.199997 42.1,-31.5999998 110.3,-56 110.3,21.8 0,15.5 -8.9,130.499997 -14.1,149.199997 -18.2,64.8 -84.4,81.4 -143.3,71.3 102.9,17.5 129.1,75.5 72.5,133.5 -107.4,110.2 -154.3,-27.6 -166.3,-62.9 v 0 c -1.7,-4.9 -2.6,-7.8 -3.3,-7.8 -0.7,0 -1.6,3 -3.3,7.8 v 0 c -12,35.3 -59,173.1 -166.3,62.9 -56.5,-58 -30.4,-116 72.5,-133.5 -58.9,10.1 -125.1,-6.5 -143.2,-71.4 C 8.9,182.43077 0,67.430773 0,51.930773 c 0,-77.8 68.2,-53.3999998 110.3,-21.8 z"
     id="path21688"
     style="fill:#182633;fill-opacity:1" />
</svg>
