<?xml version="1.0" encoding="UTF-8" standalone="no"?>
<svg
   viewBox="0 0 448 448"
   version="1.1"
   id="svg19980"
   sodipodi:docname="linkedin-in-brands-solid.svg"
   width="448"
   height="448"
   inkscape:version="1.2.1 (9c6d41e410, 2022-07-14)"
   xmlns:inkscape="http://www.inkscape.org/namespaces/inkscape"
   xmlns:sodipodi="http://sodipodi.sourceforge.net/DTD/sodipodi-0.dtd"
   xmlns="http://www.w3.org/2000/svg"
   xmlns:svg="http://www.w3.org/2000/svg">
  <defs
     id="defs19984" />
  <sodipodi:namedview
     id="namedview19982"
     pagecolor="#ffffff"
     bordercolor="#000000"
     borderopacity="0.25"
     inkscape:showpageshadow="2"
     inkscape:pageopacity="0.0"
     inkscape:pagecheckerboard="0"
     inkscape:deskcolor="#d1d1d1"
     showgrid="false"
     inkscape:zoom="1.6679688"
     inkscape:cx="197.84543"
     inkscape:cy="160.07494"
     inkscape:window-width="2560"
     inkscape:window-height="1009"
     inkscape:window-x="1072"
     inkscape:window-y="353"
     inkscape:window-maximized="1"
     inkscape:current-layer="svg19980" />
  <!--!Font Awesome Free 6.7.2 by @fontawesome - https://fontawesome.com License - https://fontawesome.com/license/free Copyright 2025 Fonticons, Inc.-->
  <path
     d="M 100.3,448 H 7.4 V 148.9 h 92.9 z M 53.8,108.1 C 24.1,108.1 0,83.5 0,53.8 a 53.8,53.8 0 0 1 107.6,0 c 0,29.7 -24.1,54.3 -53.8,54.3 z M 447.9,448 H 355.2 V 302.4 c 0,-34.7 -0.7,-79.2 -48.3,-79.2 -48.3,0 -55.7,37.7 -55.7,76.7 V 448 H 158.4 V 148.9 h 89.1 v 40.8 h 1.3 c 12.4,-23.5 42.7,-48.3 87.9,-48.3 94,0 111.3,61.9 111.3,142.3 V 448 Z"
     id="path19978"
     style="fill:#182633;fill-opacity:1" />
</svg>
