<?xml version="1.0" encoding="UTF-8" standalone="no"?>
<svg
   viewBox="0 0 448 448"
   version="1.1"
   id="svg10970"
   sodipodi:docname="researchgate-brands-solid.svg"
   width="448"
   height="448"
   inkscape:version="1.2.1 (9c6d41e410, 2022-07-14)"
   xmlns:inkscape="http://www.inkscape.org/namespaces/inkscape"
   xmlns:sodipodi="http://sodipodi.sourceforge.net/DTD/sodipodi-0.dtd"
   xmlns="http://www.w3.org/2000/svg"
   xmlns:svg="http://www.w3.org/2000/svg">
  <defs
     id="defs10974" />
  <sodipodi:namedview
     id="namedview10972"
     pagecolor="#ffffff"
     bordercolor="#000000"
     borderopacity="0.25"
     inkscape:showpageshadow="2"
     inkscape:pageopacity="0.0"
     inkscape:pagecheckerboard="0"
     inkscape:deskcolor="#d1d1d1"
     showgrid="false"
     inkscape:zoom="1.179432"
     inkscape:cx="38.153958"
     inkscape:cy="248.42466"
     inkscape:window-width="2560"
     inkscape:window-height="1009"
     inkscape:window-x="1072"
     inkscape:window-y="353"
     inkscape:window-maximized="1"
     inkscape:current-layer="svg10970" />
  <!--!Font Awesome Free 6.7.2 by @fontawesome - https://fontawesome.com License - https://fontawesome.com/license/free Copyright 2025 Fonticons, Inc.-->
  <path
     d="M 0,0 V 448 H 448 V 0 Z m 262.2,334.4 c -6.6,3 -33.2,6 -50,-14.2 -9.2,-10.6 -25.3,-33.3 -42.2,-63.6 -8.9,0 -14.7,0 -21.4,-0.6 v 46.4 c 0,23.5 6,21.2 25.8,23.9 v 8.1 c -6.9,-0.3 -23.1,-0.8 -35.6,-0.8 -13.1,0 -26.1,0.6 -33.6,0.8 v -8.1 c 15.5,-2.9 22,-1.3 22,-23.9 V 193 c 0,-22.6 -6.4,-21 -22,-23.9 V 161 c 25.8,1 53.1,-0.6 70.9,-0.6 31.7,0 55.9,14.4 55.9,45.6 0,21.1 -16.7,42.2 -39.2,47.5 13.6,24.2 30,45.6 42.2,58.9 7.2,7.8 17.2,14.7 27.2,14.7 z m 22.9,-135 c -23.3,0 -32.2,-15.7 -32.2,-32.2 V 135 c 0,-12.2 8.8,-30.4 34,-30.4 25.2,0 30.4,17.9 30.4,17.9 l -10.7,7.2 c 0,0 -5.5,-12.5 -19.7,-12.5 -7.9,0 -19.7,7.3 -19.7,19.7 v 26.8 c 0,13.4 6.6,23.3 17.9,23.3 14.1,0 21.5,-10.9 21.5,-26.8 h -17.9 v -10.7 h 30.4 c 0,20.5 4.7,49.9 -34,49.9 z m -116.5,44.7 c -9.4,0 -13.6,-0.3 -20,-0.8 v -69.7 c 6.4,-0.6 15,-0.6 22.5,-0.6 23.3,0 37.2,12.2 37.2,34.5 0,21.9 -15,36.6 -39.7,36.6 z"
     id="path10968"
     style="fill:#182633;fill-opacity:1" />
</svg>
