<?xml version="1.0" encoding="UTF-8" standalone="no"?>
<svg
   viewBox="0 0 512 415.89999"
   version="1.1"
   id="svg20472"
   sodipodi:docname="twitter-brands-solid.svg"
   width="512"
   height="415.89999"
   inkscape:version="1.2.1 (9c6d41e410, 2022-07-14)"
   xmlns:inkscape="http://www.inkscape.org/namespaces/inkscape"
   xmlns:sodipodi="http://sodipodi.sourceforge.net/DTD/sodipodi-0.dtd"
   xmlns="http://www.w3.org/2000/svg"
   xmlns:svg="http://www.w3.org/2000/svg">
  <defs
     id="defs20476" />
  <sodipodi:namedview
     id="namedview20474"
     pagecolor="#ffffff"
     bordercolor="#000000"
     borderopacity="0.25"
     inkscape:showpageshadow="2"
     inkscape:pageopacity="0.0"
     inkscape:pagecheckerboard="0"
     inkscape:deskcolor="#d1d1d1"
     showgrid="false"
     inkscape:zoom="1.6679688"
     inkscape:cx="229.6206"
     inkscape:cy="208.03746"
     inkscape:window-width="2560"
     inkscape:window-height="1009"
     inkscape:window-x="1072"
     inkscape:window-y="353"
     inkscape:window-maximized="1"
     inkscape:current-layer="svg20472" />
  <!--!Font Awesome Free 6.7.2 by @fontawesome - https://fontawesome.com License - https://fontawesome.com/license/free Copyright 2025 Fonticons, Inc.-->
  <path
     d="m 459.4,103.7 c 0.3,4.5 0.3,9.1 0.3,13.6 0,138.7 -105.6,298.6 -298.6,298.6 -59.5,0 -114.7,-17.2 -161.1,-47.1 8.4,1 16.6,1.3 25.3,1.3 49.1,0 94.2,-16.6 130.3,-44.8 -46.1,-1 -84.8,-31.2 -98.1,-72.8 6.5,1 13,1.6 19.8,1.6 9.4,0 18.8,-1.3 27.6,-3.6 -48.1,-9.7 -84.1,-52 -84.1,-103 v -1.3 c 14,7.8 30.2,12.7 47.4,13.3 -28.3,-18.8 -46.8,-51 -46.8,-87.4 0,-19.5 5.2,-37.4 14.3,-53 51.7,63.7 129.3,105.3 216.4,109.8 -1.6,-7.8 -2.6,-15.9 -2.6,-24 C 249.5,47.1 296.3,0 354.4,0 c 30.2,0 57.5,12.7 76.7,33.1 23.7,-4.5 46.5,-13.3 66.6,-25.3 -7.8,24.4 -24.4,44.8 -46.1,57.8 21.1,-2.3 41.6,-8.1 60.4,-16.2 -14.3,20.8 -32.2,39.3 -52.6,54.3 z"
     id="path20470"
     style="fill:#182633;fill-opacity:1" />
</svg>
